<svg width="16" height="16" viewBox="0 0 16 16" fill="none" xmlns="http://www.w3.org/2000/svg">
<path d="M15.5957 14.2664H13.1696C14.55 13.0243 15.4661 11.3608 15.7707 9.54357C16.0752 7.72633 15.7505 5.86097 14.8486 4.24762C13.9468 2.63426 12.5203 1.36671 10.7988 0.648896C9.07716 -0.0689224 7.16052 -0.195271 5.35721 0.290177C5.30609 0.30396 5.25824 0.327527 5.21636 0.359534C5.17449 0.391541 5.13943 0.431359 5.11317 0.476717C5.08692 0.522075 5.07 0.572083 5.06336 0.623887C5.05672 0.675691 5.0605 0.728273 5.07449 0.778636C5.08848 0.828999 5.1124 0.876156 5.14489 0.917411C5.17737 0.958666 5.21779 0.993214 5.26382 1.01908C5.30986 1.04495 5.36062 1.06162 5.4132 1.06816C5.46578 1.0747 5.51915 1.07098 5.57027 1.05719C7.22055 0.610735 8.97602 0.732227 10.5468 1.4016C12.1175 2.07097 13.4095 3.24818 14.2094 4.73879C15.0093 6.22941 15.2692 7.94425 14.9463 9.60008C14.6233 11.2559 13.7368 12.7537 12.4331 13.846V11.1509H12.4301C12.4274 11.0477 12.3839 10.9497 12.3089 10.8777C12.2339 10.8057 12.1333 10.7654 12.0286 10.7654C11.9239 10.7654 11.8233 10.8057 11.7483 10.8777C11.6733 10.9497 11.6298 11.0477 11.6271 11.1509V14.6639C11.6271 14.7693 11.6696 14.8705 11.7453 14.945C11.821 15.0196 11.9236 15.0615 12.0306 15.0615H15.5965C15.7035 15.0615 15.8062 15.0196 15.8819 14.945C15.9575 14.8705 16 14.7693 16 14.6639C16 14.5585 15.9575 14.4574 15.8819 14.3828C15.8062 14.3082 15.7035 14.2664 15.5965 14.2664H15.5957Z" fill="currentColor"/>
<path d="M10.4421 14.9427C8.79325 15.3887 7.03933 15.2678 5.46958 14.5998C3.89982 13.9318 2.60797 12.7568 1.80704 11.2683C1.00611 9.77989 0.743918 8.06696 1.0637 6.412C1.38349 4.75704 2.26616 3.25886 3.56616 2.1645V4.86787H3.5702C3.57552 4.969 3.62004 5.06425 3.69458 5.13398C3.76911 5.2037 3.86797 5.24258 3.97074 5.24258C4.07352 5.24258 4.17238 5.2037 4.24691 5.13398C4.32145 5.06425 4.36597 4.969 4.37129 4.86787H4.37317V1.37177C4.37816 1.27755 4.34859 1.1847 4.28987 1.11016C4.23116 1.03562 4.14721 0.984365 4.05333 0.965736L4.04849 0.96441C4.02866 0.961027 4.00861 0.959077 3.9885 0.958578C3.98205 0.958578 3.97613 0.956726 3.96967 0.956726H0.403504C0.296488 0.956726 0.193853 0.998609 0.118181 1.07316C0.0425095 1.14772 0 1.24884 0 1.35428C0 1.45972 0.0425095 1.56084 0.118181 1.63539C0.193853 1.70995 0.296488 1.75184 0.403504 1.75184H2.82318C1.44858 2.99671 0.538357 4.66052 0.238628 6.47621C-0.0611009 8.29191 0.26704 10.1542 1.17038 11.7641C2.07373 13.374 3.49989 14.6382 5.21993 15.3537C6.93997 16.0692 8.85414 16.1946 10.6552 15.7097C10.7584 15.6819 10.8462 15.6148 10.8992 15.5232C10.9522 15.4316 10.9662 15.323 10.9379 15.2213C10.9097 15.1195 10.8416 15.0331 10.7486 14.9808C10.6556 14.9286 10.5454 14.9149 10.4421 14.9427Z" fill="currentColor"/>
</svg>
